<?xml version="1.0" encoding="UTF-8"?>
<svg xmlns="http://www.w3.org/2000/svg" version="1.1" viewBox="0 0 665 355">
  <defs>
    <style>
      .cls-1 {
        stroke: blue;
      }

      .cls-1, .cls-2, .cls-3, .cls-4 {
        fill: none;
        stroke-miterlimit: 11.3;
        stroke-width: .4px;
      }

      .cls-2 {
        stroke: #d0d000;
      }

      .cls-3 {
        stroke: #000;
      }

      .cls-4 {
        stroke: #00e000;
      }
    </style>
  </defs>
  <!-- Generator: Adobe Illustrator 28.6.0, SVG Export Plug-In . SVG Version: 1.2.0 Build 709)  -->
  <g>
    <g id="Layer_1">
      <path class="cls-3" d="M331.2,166.8v-14.7h-13.3v12.2l-2.7-.6-2.7-.6-2.8-.6-2.8-.6-2.8-.6-2.9-.6-2.9-.7-2.9-.7-3-.7-3-.7-3-.7-3.1-.7-3.1-.8-3.1-.8-3.1-.8-3.2-.8-3.2-.8-3.2-.8-3.3-.9-3.3-.9-3.3-.9-3.4-.9-3.4-.9-3.4-.9-3.5-1-3.5-1-3.5-1-3.5-1-3.6-1-3.6-1-3.6-1-3.7-1.1-2.2-.7-2.2-.7-2.2-.7-2.3-.7-2.3-.8-2.4-.8-2.4-.8-2.4-.8-2.5-.8-2.5-.9-2.5-.9-2.5-.9-2.6-.9-2.6-.9-2.6-.9-2.6-1-2.7-1-2.7-1-2.7-1-2.7-1-2.8-1-2.8-1-2.8-1.1-2.8-1.1-2.8-1.1-2.8-1.1-5.7-2.2-5.8-2.2-5.8-2.3-5.8-2.3-5.9-2.3-5.9-2.4-5.9-2.4-11.7-4.8-5.9-2.4-5.8-2.4-5.8-2.4-5.7-2.4-5.7-2.4-5.6-2.4-2.8-1.2-2.8-1.2-2.8-1.2-2.7-1.2-2.7-1.2-2.7-1.2-2.7-1.2-2.6-1.2-23.7-11.3v-9.1l100.8,38.8,4.8-12.4L16.4,35.2v-14.8h0s0,0,0,0h0c0,0,0,.1,0,.1h.1c0,0,.1.2.1.2h.2c0,.1.2.2.2.2h.2c0,.1.2.3.2.3h.3c0,.1.3.3.3.3l.3.2.3.2.3.2.4.2.4.2.4.2.4.2.4.2.5.2.5.2.5.2.5.2.5.2.6.3.6.3.6.3.6.3.6.3.6.3.7.3.7.3.7.3.7.3.7.3,1.5.7,1.6.7,1.6.7,1.7.7,1.7.7,1.8.7,1.9.8,1.9.8,1.9.8,2,.8,2,.8,2.1.8,2.1.8,2.2.8,16,6.2,16,6.3,16,6.3,16,6.3,16.1,6.3,8,3.1,8.1,3.1,8.1,3.1,8.1,3,8.1,3,8.1,2.9,8.1,2.9,8.1,2.9,8.1,2.8,8.2,2.7,8.2,2.7,4.1,1.3,4.1,1.3,4.1,1.3,4.1,1.3,4.1,1.3,4.1,1.2,4.1,1.2,4.1,1.2,4.1,1.2,4.1,1.2,4.2,1.1,4.2,1.1,4.2,1.1,4.2,1.1,4.2,1,4.2,1,4.2,1,4.2,1,4.2.9,4.2.9,4.2.9,4.2.9h0s1.6.3,1.6.3l.8.2h.1s.5.1.5.1l.9.2,1.9.4,3.7.7,3.7.7,3.8.6,3.8.6,3.8.5,3.8.4,3.8.4,3.8.3,3.8.3,3.8.2,3.8.2h3.8v14.6h13.3v-14.5h4c0-.1,4-.3,4-.3l4-.3,4-.3,4-.4,4-.4,3.9-.5,3.9-.6,3.9-.6,3.9-.7,3.9-.7,3.9-.8,3.8-.9,3.8-.9,3.8-1,3.8-1,3.8-1.1h0s3.1-.9,3.1-.9l3.1-.9,3.1-.9,3.1-1,3.1-1,3.1-1,3.1-1,3.1-1,3.1-1,3.1-1.1,3-1.1,3-1.1,3-1.1,3-1.1,3-1.2,3-1.2,3-1.2,3-1.2,3-1.2,3-1.3,3-1.3,3-1.3,3-1.3,2.9-1.3,2.9-1.4,2.9-1.4,2.9-1.4,2.9-1.4,2.9-1.4,2.9-1.4,2.9-1.5,2.9-1.5,2.9-1.5,2.9-1.5,2.8-1.5,2.8-1.6,2.8-1.6,2.8-1.6,2.8-1.6,2.8-1.6,2.8-1.6,2.8-1.7,2.8-1.7,2.7-1.7,2.7-1.7,2.7-1.7,2.7-1.8,2.7-1.8,2.7-1.8,2.7-1.8,2.7-1.8,2.7-1.8,2.6-1.9,2.6-1.9,2.6-1.9,2.6-1.9,2.6-1.9,2.6-2,2.6-2,2.5-2,2.5-2,2.5-2,2.5-2,2.5-2.1.5-.4.5-.5.5-.5.6-.5.6-.5.6-.5,1.2-1.1,2.4-2.3,1.2-1.1.6-.5.6-.5.6-.5.6-.5.6-.5.5-.4.5-.4.5-.4.5-.3.5-.3.4-.2.4-.2h.4c0-.1.4-.2.4-.2h.2s.2,0,.2,0h.1s.1,0,.1,0h.1c0,0,.1.1.1.1h.1c0,0,0,.2,0,.2l.2.3.2.3v.3c.1,0,.3.3.3.3v.3c0,0,.2.4.2.4v.4c0,0,0,.4,0,.4v.4s0,.4,0,.4v.5s0,.5,0,.5v.5c0,0-.2.5-.2.5v.5c-.1,0-.3.5-.3.5l-.2.6-.2.6-.2.6-.2.6-.3.6-.3.6-.3.7-.3.7-.4.7-.4.7-.4.7-.4.7-.5.7-.5.7-.5.8-.5.8-.6.8-.6.8-.6.8-.6.8-.6.8-.7.8-.7.8-.7.8-.8.9-.8.9-.8.9-.8.9-.9.9-.9.9-.9.9-.9.9-1,.9-1,.9-1,.9-1,.9-1.1.9-1.1.9-1.1,1-1.1,1-1.2,1-1.2,1-1.2,1-1.3,1-1.3,1-1.3,1-1.3,1-1.4,1-5.6,4-5.7,4-5.7,3.9-5.8,3.9-5.8,3.9-5.9,3.8-5.9,3.8-6,3.8-6,3.7-6.1,3.7-6.1,3.7-6.2,3.6-6.2,3.6-6.3,3.6-6.3,3.5-6.4,3.5-6.4,3.5-6.5,3.4-6.5,3.4-6.6,3.4-6.6,3.3v-10.7h-13.3v17.2l-6.6,3.2-6.7,3.1-6.7,3.1-6.7,3.1-6.8,3c-.7.3-1.4.6-2.2.9v-15h-13.3v19.2l-2.3.6-2.3.5-2.3.5-2.3.5-2.3.4-2.3.4-2.3.4-2.3.3-2.3.3-2.3.3-2.3.2-2.3.2-2.4.2h-2.4c0,.1-2.4.3-2.4.3h-2.4c0,0-2.4.2-2.4.2h-2.4c0,0-2.4,0-2.4,0h-2.4s-2.4,0-2.4,0h-2.4s-4.7-.1-4.7-.1l-4.7-.2-4.7-.2-4.7-.2-4.7-.3-1.7-.3-1.7-.3-1.7-.3-1.8-.3-1.8-.3-1.8-.3-1.8-.3-1.8-.3Z"/>
      <path class="cls-3" d="M445.5,53.2h64.8l-4.6-1.3-4.6-1.2-4.6-1.2-4.7-1.2-4.7-1.2-4.7-1.2-4.7-1.1-4.7-1.1-4.7-1.1-4.8-1.1-4.8-1-4.8-1-4.8-1-4.8-.9-4.9-.9-4.9-.8-4.9-.8-4.9-.8-4.9-.7-5-.7-5-.7-5-.6-5-.6-5-.6-5-.5-5.1-.5-5.1-.5-5.1-.4-5.1-.4-5.1-.4-5.1-.4-5.1-.4c-4.2-8-9.8-15.2-16.6-21.1v108c6.8-5.9,12.5-13.1,16.6-21.1l5.1-.4,5.1-.4,5.1-.4,5.1-.4,5.1-.4,5.1-.5,5.1-.5,5-.5,5-.6,5-.6,5-.6,5-.7,5-.7,4.9-.7,4.9-.8,4.9-.8,4.9-.8,4.9-.9,4.8-.9,4.8-1,4.8-1,4.8-1,4.8-1.1,4.7-1.1,4.7-1.1,4.7-1.1,4.7-1.2,4.7-1.2,4.7-1.2,4.6-1.2,4.6-1.2,4.6-1.3h-64.8v-13.3Z"/>
      <path class="cls-3" d="M418.2,246.2h64.8v14.4h-64.8l4.6,1.3,4.6,1.2,4.6,1.2,4.7,1.2,4.7,1.2,4.7,1.1,4.7,1.1,4.7,1.1,4.7,1,4.8,1,4.8,1,4.8.9,4.8.9,4.8.9,4.9.9,4.9.8,4.9.8,4.9.8,4.9.7,4.9.7,5,.7,5,.6,5,.6,5,.6,5,.5,5.1.5,5.1.5,5.1.5,5.1.4,5.1.4,5.1.4,5.1.4c4.2,8,9.8,15.2,16.6,21.1v-108c-6.8,5.9-12.5,13.1-16.6,21.1l-5.1.4-5.1.4-5.1.4-5.1.4-5.1.5-5.1.5-5.1.5-5,.5-5,.6-5,.6-5,.6-5,.7-4.9.7-4.9.7-4.9.8-4.9.8-4.9.8-4.9.9-4.8.9-4.8.9-4.8.9-4.8,1-4.8,1-4.7,1-4.7,1.1-4.7,1.1-4.7,1.1-4.7,1.2-4.7,1.2-4.6,1.2-4.6,1.2-4.6,1.3Z"/>
      <path class="cls-3" d="M332.1,228.1v-14.7h-13.3v12.2l-2.7-.6-2.7-.6-2.8-.6-2.8-.6-2.8-.6-2.9-.6-2.9-.7-2.9-.7-3-.7-3-.7-3-.7-3.1-.7-3.1-.8-3.1-.8-3.1-.8-3.2-.8-3.2-.8-3.2-.8-3.3-.9-3.3-.9-3.3-.9-3.4-.9-3.4-.9-3.4-.9-3.5-1-3.5-1-3.5-1-3.5-1-3.6-1-3.6-1-3.6-1-3.7-1.1-2.2-.7-2.2-.7-2.2-.7-2.3-.7-2.3-.8-2.4-.8-2.4-.8-2.4-.8-2.5-.8-2.5-.9-2.5-.9-2.5-.9-2.6-.9-2.6-.9-2.6-.9-2.6-1-2.7-1-2.7-1-2.7-1-2.7-1-2.8-1-2.8-1-2.8-1.1-2.8-1.1-2.8-1.1-2.8-1.1-5.7-2.2-5.8-2.2-5.8-2.3-5.8-2.3-5.9-2.3-5.9-2.4-5.9-2.4-11.7-4.8-5.9-2.4-5.8-2.4-5.8-2.4-5.7-2.4-5.7-2.4-5.6-2.4-2.8-1.2-2.8-1.2-2.8-1.2-2.7-1.2-2.7-1.2-2.7-1.2-2.7-1.2-2.6-1.2-23.7-11.3v-9.1l100.8,38.8,4.8-12.4L17.4,96.5v-14.8h0s0,0,0,0h0c0,0,0,.1,0,.1h.1c0,0,.1.2.1.2h.2c0,.1.2.2.2.2h.2c0,.1.2.3.2.3h.3c0,.1.3.3.3.3l.3.2.3.2.3.2.4.2.4.2.4.2.4.2.4.2.5.2.5.2.5.2.5.2.5.2.6.3.6.3.6.3.6.3.6.3.6.3.7.3.7.3.7.3.7.3.7.3,1.5.7,1.6.7,1.6.7,1.7.7,1.7.7,1.8.7,1.9.8,1.9.8,1.9.8,2,.8,2,.8,2.1.8,2.1.8,2.2.8,16,6.2,16,6.3,16,6.3,16,6.3,16.1,6.3,8,3.1,8.1,3.1,8.1,3.1,8.1,3,8.1,3,8.1,2.9,8.1,2.9,8.1,2.9,8.1,2.8,8.2,2.7,8.2,2.7,4.1,1.3,4.1,1.3,4.1,1.3,4.1,1.3,4.1,1.3,4.1,1.2,4.1,1.2,4.1,1.2,4.1,1.2,4.1,1.2,4.2,1.1,4.2,1.1,4.2,1.1,4.2,1.1,4.2,1,4.2,1,4.2,1,4.2,1,4.2.9,4.2.9,4.2.9,4.2.9h0s1.6.3,1.6.3l.8.2h.1s.5.1.5.1l.9.2,1.9.4,3.7.7,3.7.7,3.8.6,3.8.6,3.8.5,3.8.4,3.8.4,3.8.3,3.8.3,3.8.2,3.8.2h3.8v14.6h13.3v-14.5h4c0-.1,4-.3,4-.3l4-.3,4-.3,4-.4,4-.4,3.9-.5,3.9-.6,3.9-.6,3.9-.7,3.9-.7,3.9-.8,3.8-.9,3.8-.9,3.8-1,3.8-1,3.8-1.1h0s3.1-.9,3.1-.9l3.1-.9,3.1-.9,3.1-1,3.1-1,3.1-1,3.1-1,3.1-1,3.1-1,3.1-1.1,3-1.1,3-1.1,3-1.1,3-1.1,3-1.2,3-1.2,3-1.2,3-1.2,3-1.2,3-1.3,3-1.3,3-1.3,3-1.3,2.9-1.3,2.9-1.4,2.9-1.4,2.9-1.4,2.9-1.4,2.9-1.4,2.9-1.4,2.9-1.5,2.9-1.5,2.9-1.5,2.9-1.5,2.8-1.5,2.8-1.6,2.8-1.6,2.8-1.6,2.8-1.6,2.8-1.6,2.8-1.6,2.8-1.7,2.8-1.7,2.7-1.7,2.7-1.7,2.7-1.7,2.7-1.8,2.7-1.8,2.7-1.8,2.7-1.8,2.7-1.8,2.7-1.8,2.6-1.9,2.6-1.9,2.6-1.9,2.6-1.9,2.6-1.9,2.6-2,2.6-2,2.5-2,2.5-2,2.5-2,2.5-2,2.5-2.1.5-.4.5-.5.5-.5.6-.5.6-.5.6-.5,1.2-1.1,2.4-2.3,1.2-1.1.6-.5.6-.5.6-.5.6-.5.6-.5.5-.4.5-.4.5-.4.5-.3.5-.3.4-.2.4-.2h.4c0-.1.4-.2.4-.2h.2s.2,0,.2,0h.1s.1,0,.1,0h.1c0,0,.1.1.1.1h.1c0,0,0,.2,0,.2l.2.3.2.3v.3c.1,0,.3.3.3.3v.3c0,0,.2.4.2.4v.4c0,0,0,.4,0,.4v.4s0,.4,0,.4v.5s0,.5,0,.5v.5c0,0-.2.5-.2.5v.5c-.1,0-.3.5-.3.5l-.2.6-.2.6-.2.6-.2.6-.3.6-.3.6-.3.7-.3.7-.4.7-.4.7-.4.7-.4.7-.5.7-.5.7-.5.8-.5.8-.6.8-.6.8-.6.8-.6.8-.6.8-.7.8-.7.8-.7.8-.8.9-.8.9-.8.9-.8.9-.9.9-.9.9-.9.9-.9.9-1,.9-1,.9-1,.9-1,.9-1.1.9-1.1.9-1.1,1-1.1,1-1.2,1-1.2,1-1.2,1-1.3,1-1.3,1-1.3,1-1.3,1-1.4,1-5.6,4-5.7,4-5.7,3.9-5.8,3.9-5.8,3.9-5.9,3.8-5.9,3.8-6,3.8-6,3.7-6.1,3.7-6.1,3.7-6.2,3.6-6.2,3.6-6.3,3.6-6.3,3.5-6.4,3.5-6.4,3.5-6.5,3.4-6.5,3.4-6.6,3.4-6.6,3.3v-10.7h-13.3v17.2l-6.6,3.2-6.7,3.1-6.7,3.1-6.7,3.1-6.8,3c-.7.3-1.4.6-2.2.9v-15h-13.3v19.2l-2.3.6-2.3.5-2.3.5-2.3.5-2.3.4-2.3.4-2.3.4-2.3.3-2.3.3-2.3.3-2.3.2-2.3.2-2.4.2h-2.4c0,.1-2.4.3-2.4.3h-2.4c0,0-2.4.2-2.4.2h-2.4c0,0-2.4,0-2.4,0h-2.4s-2.4,0-2.4,0h-2.4s-4.7-.1-4.7-.1l-4.7-.2-4.7-.2-4.7-.2-4.7-.3-1.7-.3-1.7-.3-1.7-.3-1.8-.3-1.8-.3-1.8-.3-1.8-.3-1.8-.3Z"/>
      <path class="cls-4" d="M634.8,161.9l.4.7,1.1,1.1h-7.9"/>
      <path class="cls-4" d="M478.6,131.4l.4.7,1.1,1.1h-7.9"/>
      <path class="cls-4" d="M344.8,308.3v-.4l.4-.7.4-.4.7-.4h1.5l.8.4.4.4.4.7v.8l-.4.7-.8,1.1-3.8,3.8h5.3"/>
      <path class="cls-4" d="M429.1,150.9h.4l.7.4.4.4.4.7v1.5l-.4.8-.4.4-.7.4h-.8l-.7-.4-1.1-.8-3.8-3.8v5.3"/>
      <path class="cls-4" d="M328.8,158.7v4.2l-3-2.3v1.1l-.4.8-.4.4-1.1.4h-.8l-1.1-.4-.8-.7-.4-1.1v-1.1l.4-1.1.4-.4.8-.4"/>
      <path class="cls-4" d="M289.4,47.7v-4.2l3,2.3v-1.1l.4-.8.4-.4,1.1-.4h.8l1.1.4.8.7.4,1.1v1.1l-.4,1.1-.4.4-.8.4"/>
      <path class="cls-4" d="M481.6,198.8l-5.3-3.8v5.7"/>
      <path class="cls-4" d="M481.6,198.8h-7.9"/>
      <path class="cls-4" d="M432.4,217.2v-3.8l-3.4-.4.4.4.4,1.1v1.1l-.4,1.1-.8.7-1.1.4h-.8l-1.1-.4-.8-.7-.4-1.1v-1.1l.4-1.1.4-.4.8-.4"/>
      <path class="cls-4" d="M637,318.8l-5.3-3.8v5.7"/>
      <path class="cls-4" d="M637,318.8h-7.9"/>
      <path class="cls-4" d="M471.7,306.5h-3.8l-.4,3.4.4-.4,1.1-.4h1.1l1.1.4.7.8.4,1.1v.8l-.4,1.1-.7.8-1.1.4h-1.1l-1.1-.4-.4-.4-.4-.8"/>
      <path class="cls-4" d="M379.8,143.1l-7.9-3.8"/>
      <path class="cls-4" d="M379.8,137.8v5.3"/>
      <path class="cls-4" d="M381.1,204.5l-7.9-3.8"/>
      <path class="cls-4" d="M381.1,199.2v5.3"/>
      <path class="cls-4" d="M295.8,308.6l-7.9-3.8"/>
      <path class="cls-4" d="M295.8,303.3v5.3"/>
      <path class="cls-4" d="M216.5,310.1l-7.9-3.8"/>
      <path class="cls-4" d="M216.5,304.8v5.3"/>
      <path class="cls-4" d="M112.9,83.6l-.9-.8-.4-1v-1.2c0,0,.2-.4.2-.4l.8-.9,1-.4h1.2c0,0,.3.2.3.2l.9.8.4,1v1.2c0,0-.2.4-.2.4l-.8.9-1,.4-1.5-.2-1.8-.7-1.6-1-.8-1.1v-1.2c0,0,.3-.7.3-.7l.8-.9h.8"/>
      <path class="cls-4" d="M108.8,75.7l-2.3,5.4"/>
      <path class="cls-4" d="M113.2,142.3l-.9-.8-.4-1v-1.2c0,0,.2-.4.2-.4l.8-.9,1-.4h1.2c0,.1.3.3.3.3l.9.8.4,1v1.2c0,0-.2.4-.2.4l-.8.9-1,.4-1.5-.3-1.7-.7-1.6-1.1-.7-1.1v-1.2c0,0,.4-.7.4-.7l.8-.9h.8"/>
      <path class="cls-4" d="M109.3,134.3l-2.4,5.3"/>
      <path class="cls-4" d="M454.7,61.4l-1.1-.4-.7-.8-.4-1.1v-.4l.4-1.1.7-.8,1.1-.4h.4l1.1.4.8.8.4,1.1v.4l-.4,1.1-.8.8-1.5.4h-1.9l-1.9-.4-1.1-.8-.4-1.1v-.8l.4-1.1.8-.4"/>
      <path class="cls-4" d="M447.9,55.6v5.9"/>
      <path class="cls-4" d="M472.4,251.6l1.1.4.7.8.4,1.1v.4l-.4,1.1-.7.8-1.1.4h-.4l-1.1-.4-.8-.8-.4-1.1v-.4l.4-1.1.8-.8,1.5-.4h1.9l1.9.4,1.1.8.4,1.1v.8l-.4,1.1-.8.4"/>
      <path class="cls-4" d="M479.2,257.4v-5.9"/>
      <path class="cls-4" d="M328.3,223.9l.8-.4.4-1.1v-.7l-.4-1.1-1.1-.8-1.9-.4h-1.9l-1.5.4-.8.8-.4,1.1v.4l.4,1.1.8.7,1.1.4h.4l1.1-.4.8-.7.4-1.1v-.4l-.4-1.1-.8-.8-1.1-.4"/>
      <path class="cls-4" d="M319.8,224.9v-5.9"/>
      <path class="cls-4" d="M190.9,47.9l.8-.4.4-1.1v-.7l-.4-1.1-1.1-.8-1.9-.4h-1.9l-1.5.4-.8.8-.4,1.1v.4l.4,1.1.8.7,1.1.4h.4l1.1-.4.8-.7.4-1.1v-.4l-.4-1.1-.8-.8-1.1-.4"/>
      <path class="cls-4" d="M181.4,49.1v-5.9"/>
      <path class="cls-1" d="M66,298.5v-11.9h12.7v11.9h-12.7Z"/>
      <path class="cls-1" d="M42.4,267.8h17.2v12.3h-17.2v-12.3Z"/>
      <path class="cls-1" d="M66,229.9h12.7v12.7h-12.7v-12.7Z"/>
      <path class="cls-1" d="M97.4,199.8h-12.3v-7.1l12.3,4.9v2.1Z"/>
      <path class="cls-1" d="M31.4,267.8h4.5v7.2l-4.5-7.2Z"/>
      <path class="cls-1" d="M59.6,286.6v11.9h-9.2l-7.4-11.9h16.6Z"/>
      <path class="cls-1" d="M103.9,280.1v-12.3h12.3v12.3h-12.3Z"/>
      <path class="cls-1" d="M103.9,306.7v-1.6h4.1l-4.1,1.6Z"/>
      <path class="cls-1" d="M26.2,249.7h8.9v11.1h-8.1l-3.9-6.2,3-4.9Z"/>
      <path class="cls-1" d="M116.2,223.5h-12.3v-17.2h12.3v17.2Z"/>
      <path class="cls-1" d="M42.4,249h17.2v12.4h-17.2v-12.4Z"/>
      <path class="cls-1" d="M152.4,242.6h-11.3v-12.7h5.2l6.1,12.7Z"/>
      <path class="cls-1" d="M59.6,199.8h-3.7l3.7-6.1v6.1Z"/>
      <path class="cls-1" d="M85.1,249h12.3v12.4h-12.3v-12.4Z"/>
      <path class="cls-1" d="M134.6,242.6h-11.9v-12.7h11.9v12.7Z"/>
      <path class="cls-1" d="M102.8,199.8h-.3c0-.1.3,0,.3,0Z"/>
      <path class="cls-1" d="M145,280.1h-3.9v-12.3h10l-6.1,12.3Z"/>
      <path class="cls-1" d="M134.6,261.4h-11.9v-12.4h11.9v12.4Z"/>
      <path class="cls-1" d="M97.4,223.5h-12.3v-17.2h12.3v17.2Z"/>
      <path class="cls-1" d="M97.4,280.1h-12.3v-12.3h12.3v12.3Z"/>
      <path class="cls-1" d="M116.2,242.6h-12.3v-12.7h12.3v12.7Z"/>
      <path class="cls-1" d="M141.1,261.4v-12.4h14.4l2.4,5-3.6,7.3h-13.1Z"/>
      <path class="cls-1" d="M35.8,232.7v9.9h-6l6-9.9Z"/>
      <path class="cls-1" d="M97.4,298.5h-12.3v-11.9h12.3v11.9Z"/>
      <path class="cls-1" d="M143.2,223.5h-2.1v-4.4l2.1,4.4Z"/>
      <path class="cls-1" d="M66,305h12.7v11.7l-12.7,5.1v-16.7Z"/>
      <path class="cls-1" d="M78.7,206.3v17.2h-12.7v-17.2h12.7Z"/>
      <path class="cls-1" d="M141.1,288v-1.4h.7l-.7,1.4Z"/>
      <path class="cls-1" d="M103.9,261.4v-12.4h12.3v12.4h-12.3Z"/>
      <path class="cls-1" d="M78.7,190.2v9.6h-12.7v-14.7l12.7,5.1Z"/>
      <path class="cls-1" d="M124.4,298.5h-1.8v-11.9h11.9v7.9l-10.1,4Z"/>
      <path class="cls-1" d="M78.7,249v12.4h-12.7v-12.4h12.7Z"/>
      <path class="cls-1" d="M42.4,229.9h17.2v12.7h-17.2v-12.7Z"/>
      <path class="cls-1" d="M134.6,223.5h-11.9v-15.8l11.9,4.8v11Z"/>
      <path class="cls-1" d="M134.6,280.1h-11.9v-12.3h11.9v12.3Z"/>
      <path class="cls-1" d="M103.9,298.5v-11.9h12.3v11.9h-12.3Z"/>
      <path class="cls-1" d="M59.6,305v8.3l-5.2-8.3h5.2Z"/>
      <path class="cls-1" d="M78.7,267.8v12.3h-12.7v-12.3h12.7Z"/>
      <path class="cls-1" d="M97.4,309.2l-12.3,4.9v-9.1h12.3v4.2Z"/>
      <path class="cls-1" d="M42.4,221.9l9.5-15.6h7.7v17.2h-17.2v-1.6Z"/>
      <path class="cls-1" d="M97.4,229.9v12.7h-12.3v-12.7h12.3Z"/>
      <path class="cls-3" d="M176.1,264.5h200.7v-1.8h13.5v-18h-13.5v-1.8h-200.9l4.1-8.3-8.8-4.3-6,12.1-17.2-34.8-10.1-5.7-77.5-31.2-26.5-10.2-3.5,8.9,24.8,9.9L15,244.1l-3.1-5-8.3,5.2,5.7,9.1-5.7,9.1,8.3,5.2,3.1-5,40.2,64.9-24.8,9.9,3.5,8.9,26.5-10.2,10.3-4.3,67.2-26.9,10.1-5.7,17.2-34.8,6,12.1,8.8-4.3-3.9-7.8Z"/>
      <path class="cls-3" d="M303.2,298.6v23.3l1.3-.7,1.2-.7,1.2-.7,1.1-.7,1-.8,1-.8.9-.8.9-.8.8-.8.7-.8.7-.8.6-.8.6-.8.5-.8.4-.8.4-.9.3-.9.2-.9.2-.9v-.9c0,0,.1-.9.1-.9v-.9s-.2-.9-.2-.9l-.2-.9-.2-.9-.3-.9-.4-.9-.4-.8-.5-.8-.6-.8-.6-.8-.7-.8-.8-.8-.8-.8-.9-.8-1-.8-1-.8-1.1-.7-1.1-.7-1.2-.7-1.2-.7-1.3-.7-1.3-.7-1.4-.6-1.4-.6-1.5-.6-1.5-.6-1.6-.6-1.6-.5-1.7-.5-1.7-.5-1.7-.5-1.8-.5-1.8-.4-1.8-.4-1.9-.4-1.9-.4-1.9-.3-2-.3-2-.3-2-.3-2-.2-2-.2-2-.2h-2.1c0-.1-2.1-.3-2.1-.3h-2.1c0,0-2.1-.2-2.1-.2h-2.1s-2.1,0-2.1,0h-2.1s-2.1,0-2.1,0h-2.1c0,0-2.1.2-2.1.2h-2.1c0,.1-2.1.3-2.1.3l-2,.2-2,.2-2,.2-2,.3-2,.3-1.9.3-1.9.3-1.9.4-1.9.4-1.8.4-1.8.4-1.8.5-1.7.5-1.7.5-1.6.5-1.6.6-1.6.6-1.5.6-1.5.6-1.4.6-1.4.7-1.3.7-1.3.7-1.2.7-1.1.7-1.1.7-1,.8-1,.8-.9.8-.9.8-.8.8-.7.8-.7.8-.6.8-.5.8-.5.8-.4.9-.3.9-.3.9-.2.9v.9c-.1,0-.2.9-.2.9v.9s0,.9,0,.9v.9c.1,0,.3.9.3.9l.3.9.3.9.4.9.5.8.5.8.6.8.7.8.7.8.8.8.8.8.9.8,1,.8,1,.8,1.1.7,1.1.7,1.2.7,1.3.7,1.3.7v-23.6h23.8v31.4l1.9.3,1.9.3,1.9.3,2,.3,2,.2,2,.2,2,.2,2,.2h2c0,.1,2,.2,2,.2h2c0,0,2,.1,2,.1h2s2.1,0,2.1,0h2s2,0,2,0h2c0,0,2-.2,2-.2h2c0-.1,2-.3,2-.3l2-.2,2-.2,2-.2,1.9-.3,1.9-.3,1.9-.3,1.9-.3v-31.4h23.8Z"/>
      <path class="cls-2" d="M263,311.7h-21.6v-13.3h21.6v13.3Z"/>
      <path class="cls-3" d="M286.2,52.8h13.9l-.5.9-.6.9-.7.8-.7.8-.8.8-.8.8-.9.8-1,.8-1,.8-1.1.8-1.1.7-1.2.7-1.2.7-1.3.7-1.3.7-1.4.6-1.4.6-1.5.6-1.5.6-1.6.6-1.6.5-1.7.5-1.7.5-1.7.5-1.8.4-1.8.4-1.8.4-1.9.4-1.9.3-1.9.3-1.9.3-1.9.2-2,.2-2,.2-2,.2h-2c0,.1-2,.2-2,.2h-2c0,0-2,.1-2,.1h-2s-2,0-2,0h-2s-2-.1-2-.1h-2c0-.1-2-.2-2-.2l-2-.2-2-.2-2-.2-1.9-.2-1.9-.3-1.9-.3-1.9-.3-1.9-.4-1.8-.4-1.8-.4-1.8-.4-1.7-.5-1.7-.5-1.7-.5-1.6-.5-1.6-.6-1.5-.6-1.5-.6-1.4-.6-1.4-.6-1.3-.7-1.3-.7-1.2-.7-1.2-.7-1.1-.7-1.1-.8-1-.8-1-.8-.9-.8-.8-.8-.8-.8-.7-.8-.7-.8-.6-.9-.5-.9h13.9s0-13.3,0-13.3h-13.9s.5-.9.5-.9l.6-.9.7-.8.7-.8.8-.8.8-.8.9-.8,1-.8,1-.8,1.1-.8,1.1-.7,1.2-.7,1.2-.7,1.3-.7,1.3-.7,1.4-.6,1.4-.6,1.5-.6,1.5-.6,1.6-.6,1.6-.5,1.7-.5,1.7-.5,1.7-.5,1.8-.4,1.8-.4,1.8-.4,1.9-.4,1.9-.3,1.9-.3,1.9-.3,1.9-.2,2-.2,2-.2,2-.2h2c0-.1,2-.2,2-.2h2c0,0,2-.1,2-.1h2s2,0,2,0h2s2,.1,2,.1h2c0,.1,2,.2,2,.2l2,.2,2,.2,2,.2,1.9.2,1.9.3,1.9.3,1.9.3,1.9.4,1.8.4,1.8.4,1.8.4,1.7.5,1.7.5,1.7.5,1.6.5,1.6.6,1.5.6,1.5.6,1.4.6,1.4.6,1.3.7,1.3.7,1.2.7,1.2.7,1.1.7,1.1.8,1,.8,1,.8.9.8.8.8.8.8.7.8.7.8.6.9.5.9h-13.9v13.3Z"/>
      <path class="cls-2" d="M249.7,52.8h-18v-13.3h18v13.3Z"/>
      <path class="cls-3" d="M638.7,169.7v-11.4l.7.6.7.7.7.7.7.8.7.9.7.9.7,1,.7,1.1.7,1.1.7,1.2.6,1.2.6,1.3.6,1.3.6,1.4.6,1.4.6,1.5.6,1.6.6,1.6.5,1.7.5,1.7.5,1.7.5,1.8.5,1.8.5,1.9.4,1.9.4,2,.4,2,.4,2,.4,2.1.4,2.1.3,2.1.3,2.2.3,2.2.3,2.2.3,2.2.2,2.2.2,2.3.2,2.3.2,2.3.2,2.3v2.3c.1,0,.3,2.3.3,2.3v2.4c0,0,.2,2.4.2,2.4v2.4c0,0,0,2.4,0,2.4v2.4s0,2.4,0,2.4v2.4s0,2.4,0,2.4v2.4c0,0-.2,2.4-.2,2.4v2.3c-.1,0-.3,2.3-.3,2.3l-.2,2.3-.2,2.3-.2,2.3-.2,2.3-.2,2.2-.3,2.2-.3,2.2-.3,2.2-.3,2.2-.3,2.1-.4,2.1-.4,2.1-.4,2-.4,2-.4,2-.4,1.9-.5,1.9-.5,1.8-.5,1.8-.5,1.7-.5,1.7-.5,1.7-.6,1.6-.6,1.6-.6,1.5-.6,1.4-.6,1.4-.6,1.3-.6,1.3-.6,1.2-.7,1.2-.7,1.1-.7,1.1-.7,1-.7.9-.7.9-.7.8-.7.7-.7.7-.7.6v-11.4h-13.3v11.4l-.7-.6-.7-.7-.7-.7-.7-.8-.7-.9-.7-.9-.7-1-.7-1.1-.7-1.1-.7-1.2-.6-1.2-.6-1.3-.6-1.3-.6-1.4-.6-1.4-.6-1.5-.6-1.6-.6-1.6-.5-1.7-.5-1.7-.5-1.7-.5-1.8-.5-1.8-.5-1.9-.4-1.9-.4-2-.4-2-.4-2-.4-2.1-.4-2.1-.3-2.1-.3-2.2-.3-2.2-.3-2.2-.3-2.2-.2-2.2-.2-2.3-.2-2.3-.2-2.3-.2-2.3v-2.3c-.1,0-.3-2.3-.3-2.3v-2.4c0,0-.2-2.4-.2-2.4v-2.4c0,0,0-2.4,0-2.4v-2.4s0-2.4,0-2.4v-2.4s0-2.4,0-2.4v-2.4c0,0,.2-2.4.2-2.4v-2.3c.1,0,.3-2.3.3-2.3l.2-2.3.2-2.3.2-2.3.2-2.3.2-2.2.3-2.2.3-2.2.3-2.2.3-2.2.3-2.1.4-2.1.4-2.1.4-2,.4-2,.4-2,.4-1.9.5-1.9.5-1.8.5-1.8.5-1.7.5-1.7.5-1.7.6-1.6.6-1.6.6-1.5.6-1.4.6-1.4.6-1.3.6-1.3.6-1.2.7-1.2.7-1.1.7-1.1.7-1,.7-.9.7-.9.7-.8.7-.7.7-.7.7-.6v11.4h13.3Z"/>
      <path class="cls-2" d="M625.4,250.9v-21.6h13.3v21.6h-13.3Z"/>
      <path class="cls-3" d="M459.8,317.6h18.1l-.6.8-.6.8-.7.8-.8.8-.8.8-.9.8-1,.7-1,.7-1.1.7-1.1.7-1.2.7-1.3.7-1.3.7-1.4.7-1.4.6-1.5.6-1.5.6-1.6.6-1.6.6-1.7.5-1.7.5-1.7.5-1.8.5-1.8.5-1.9.4-1.9.4-1.9.4-2,.4-2,.4-2,.3-2.1.3-2.1.3-2.1.3-2.1.2-2.1.2-2.2.2-2.2.2h-2.2c0,.1-2.2.3-2.2.3h-2.2c0,0-2.2.2-2.2.2h-2.2s-2.2,0-2.2,0h-2.2s-2.2,0-2.2,0h-2.2c0,0-2.2-.2-2.2-.2h-2.2c0-.1-2.2-.3-2.2-.3l-2.2-.2-2.2-.2-2.1-.2-2.1-.2-2.1-.3-2.1-.3-2.1-.3-2-.3-2-.4-2-.4-1.9-.4-1.9-.4-1.9-.4-1.8-.5-1.8-.5-1.7-.5-1.7-.5-1.7-.5-1.6-.6-1.6-.6-1.5-.6-1.5-.6-1.4-.6-1.4-.7-1.3-.7-1.3-.7-1.2-.7-1.1-.7-1.1-.7-1-.7-1-.7-.9-.8-.8-.8-.8-.8-.7-.8-.6-.8-.6-.8h18.1s0-13.3,0-13.3h-18.1s.6-.8.6-.8l.6-.8.7-.8.8-.8.8-.8.9-.8,1-.7,1-.7,1.1-.7,1.1-.7,1.2-.7,1.3-.7,1.3-.7,1.4-.7,1.4-.6,1.5-.6,1.5-.6,1.6-.6,1.6-.6,1.7-.5,1.7-.5,1.7-.5,1.8-.5,1.8-.5,1.9-.4,1.9-.4,1.9-.4,2-.4,2-.4,2-.3,2.1-.3,2.1-.3,2.1-.3,2.1-.2,2.1-.2,2.2-.2,2.2-.2h2.2c0-.1,2.2-.3,2.2-.3h2.2c0,0,2.2-.2,2.2-.2h2.2s2.2,0,2.2,0h2.2s2.2,0,2.2,0h2.2c0,0,2.2.2,2.2.2h2.2c0,.1,2.2.3,2.2.3l2.2.2,2.2.2,2.1.2,2.1.2,2.1.3,2.1.3,2.1.3,2,.3,2,.4,2,.4,1.9.4,1.9.4,1.9.4,1.8.5,1.8.5,1.7.5,1.7.5,1.7.5,1.6.6,1.6.6,1.5.6,1.5.6,1.4.6,1.4.7,1.3.7,1.3.7,1.2.7,1.1.7,1.1.7,1,.7,1,.7.9.8.8.8.8.8.7.8.6.8.6.8h-18.1v13.3Z"/>
      <path class="cls-2" d="M418.9,304.2v13.3h-21.6v-13.3h21.6Z"/>
    </g>
  </g>
</svg>